# xmcd
# 
# Track frame offsets:
#     150
#     3082
#     23972
#     43375
#     67590
#     86487
#     111315
#     131892
#     153150
#     171287
#     197412
#     212012
#     238972
# 
# Disc length: 3378
# 
# Revision: 3
# Processed by: cddbd v1.5.2PL0 Copyright (c) Steve Scherf et al.
# Submitted via: BonkEnc v1.0.8
# 
DISCID=aa0d300d
DTITLE=大黒摩季 - Mother Earth
DYEAR=1998
DGENRE=JPop
TTITLE0=Introduction
TTITLE1=理由
TTITLE2=この闇を突き抜ける
TTITLE3=サ☆ィ★ン
TTITLE4=忘れてしまいたいのに
TTITLE5=うそつき
TTITLE6=スキ．スキ．スキ
TTITLE7=ネッ！～女、情熱～
TTITLE8=遠い空で　きっと
TTITLE9=I Can't Stop the Rain
TTITLE10=ボクらの知らないところで
TTITLE11=Go With the Wind
TTITLE12=Mother Earth
EXTD=
EXTT0=
EXTT1=
EXTT2=
EXTT3=
EXTT4=
EXTT5=
EXTT6=
EXTT7=
EXTT8=
EXTT9=
EXTT10=
EXTT11=
EXTT12=
PLAYORDER=
